<svg xmlns="http://www.w3.org/2000/svg" width="48" height="48" viewBox="0 0 48 48">
  <g id="Group_355" data-name="Group 355" transform="translate(-1408 -858)">
    <path id="Path_246" data-name="Path 246" d="M0,0H48V48H0Z" transform="translate(1408 858)" fill="#4b4b4d" opacity="0.999"/>
    <path id="youtube" d="M26.942,5.611a3.686,3.686,0,0,1,2.472,2.744A45.521,45.521,0,0,1,30,15.965a45.5,45.5,0,0,1-.584,7.533,3.7,3.7,0,0,1-2.472,2.821A73.077,73.077,0,0,1,16,26.994a72.961,72.961,0,0,1-10.942-.674,3.686,3.686,0,0,1-2.472-2.744A45.521,45.521,0,0,1,2,15.965a45.468,45.468,0,0,1,.584-7.532A3.7,3.7,0,0,1,5.058,5.611,73.24,73.24,0,0,1,16,5.016a72.947,72.947,0,0,1,10.942.6ZM13.13,11.358v9.215l7.326-4.607Z" transform="translate(1416 866)" fill="#fff"/>
  </g>
</svg>
