<svg width="34" height="29" viewBox="0 0 34 29" fill="none" xmlns="http://www.w3.org/2000/svg">
<path d="M30.52 7.13112C30.54 7.44112 30.54 7.75212 30.54 8.06412C30.54 17.6011 23.522 28.6001 10.692 28.6001V28.5941C6.88666 28.5949 3.16628 27.4689 0 25.3581C0.551134 25.425 1.10582 25.4584 1.661 25.4581C4.81969 25.4544 7.88005 24.3592 10.324 22.3581C8.84862 22.3143 7.42464 21.8063 6.25461 20.9065C5.08458 20.0067 4.2281 18.7608 3.807 17.3461C4.85203 17.5545 5.93158 17.512 6.957 17.2221C5.35391 16.8636 3.92271 15.9651 2.9032 14.677C1.8837 13.389 1.33781 11.7897 1.357 10.1471V10.0561C2.32185 10.6129 3.40955 10.9221 4.523 10.9561C3.03549 9.90131 1.99151 8.33282 1.59261 6.55344C1.1937 4.77407 1.46816 2.91 2.363 1.32112C4.08113 3.53269 6.25348 5.35017 8.73356 6.65102C11.2136 7.95187 13.9438 8.70585 16.74 8.86212C16.4607 7.63534 16.4995 6.35756 16.8527 5.14999C17.2059 3.94242 17.8617 2.84509 18.758 1.96212C19.4157 1.31392 20.1982 0.806066 21.058 0.469372C21.9178 0.132677 22.8371 -0.0258429 23.7601 0.00342595C24.683 0.0326948 25.5904 0.249143 26.4272 0.639641C27.264 1.03014 28.0127 1.58655 28.628 2.27512C30.1957 1.95431 31.695 1.36134 33.058 0.523117C32.5527 2.1854 31.4634 3.60891 29.991 4.53112C31.3779 4.36127 32.7302 3.97808 34 3.39512C33.0705 4.8368 31.8922 6.1018 30.52 7.13112Z" fill="#1B1B1B"/>
</svg>
