<svg width="35" height="25" viewBox="0 0 35 25" fill="none" xmlns="http://www.w3.org/2000/svg">
<g clip-path="url(#clip0_105_51)">
<path d="M33.687 3.761C33.4909 3.03188 33.1067 2.36709 32.5728 1.83321C32.0389 1.29933 31.3742 0.915095 30.645 0.719C27.962 1.19209e-07 17.203 0 17.203 0C17.203 0 6.44404 1.19209e-07 3.76104 0.719C3.03197 0.915187 2.36723 1.29945 1.83336 1.83332C1.29949 2.36719 0.91523 3.03193 0.719043 3.761C0.223174 6.49307 -0.0175297 9.26535 4.22751e-05 12.042C-0.0175297 14.8187 0.223174 17.5909 0.719043 20.323C0.915137 21.0521 1.29937 21.7169 1.83325 22.2508C2.36714 22.7847 3.03193 23.1689 3.76104 23.365C6.44404 24.084 17.203 24.084 17.203 24.084C17.203 24.084 27.962 24.084 30.645 23.365C31.3742 23.169 32.039 22.7848 32.5729 22.2509C33.1068 21.717 33.491 21.0522 33.687 20.323C34.183 17.5909 34.4237 14.8187 34.406 12.042C34.4237 9.26534 34.183 6.49306 33.687 3.761Z" fill="#1B1B1B"/>
<path d="M13.7629 17.2031V6.8811L22.7019 12.0421L13.7629 17.2031Z" fill="#D1EFF4"/>
</g>
<defs>
<clipPath id="clip0_105_51">
<rect width="34.406" height="24.084" fill="white"/>
</clipPath>
</defs>
</svg>
