<svg xmlns="http://www.w3.org/2000/svg" width="48" height="48" viewBox="0 0 48 48">
  <g id="Group_354" data-name="Group 354" transform="translate(-1352 -858)">
    <rect id="Rectangle_107" data-name="Rectangle 107" width="48" height="48" transform="translate(1352 858)" fill="#4b4b4d"/>
    <path id="icons_usa-icons_Twitter" data-name="icons/usa-icons/Twitter" d="M27.077,9.913V10.7a17.885,17.885,0,0,1-4.741,12.34A15.681,15.681,0,0,1,10.771,28.1,15.3,15.3,0,0,1,2,25.36a12.489,12.489,0,0,0,1.379,0,10.924,10.924,0,0,0,7.13-2.537,5.793,5.793,0,0,1-5.3-4.261,3.971,3.971,0,0,0,1.093.127,5.854,5.854,0,0,0,1.5-.2,6.067,6.067,0,0,1-4.494-6.011,5.279,5.279,0,0,0,2.591.762A6.412,6.412,0,0,1,4.022,4.993,15.938,15.938,0,0,0,15.9,11.409a6.986,6.986,0,0,1-.167-1.4A5.93,5.93,0,0,1,21.467,3.9a5.494,5.494,0,0,1,4.207,1.927,10.7,10.7,0,0,0,3.542-1.494,6.02,6.02,0,0,1-2.52,3.4A10.3,10.3,0,0,0,30,6.743a12.334,12.334,0,0,1-2.923,3.17Z" transform="translate(1360 866)" fill="#fff" fill-rule="evenodd"/>
  </g>
</svg>
