<svg width="35" height="35" viewBox="0 0 35 35" fill="none" xmlns="http://www.w3.org/2000/svg">
<path d="M34.694 17.345C34.6936 14.03 33.7434 10.7845 31.9558 7.99272C30.1681 5.20097 27.618 2.97989 24.6073 1.59244C21.5966 0.204986 18.2513 -0.290734 14.9676 0.163965C11.6839 0.618665 8.59928 2.00474 6.07886 4.1581C3.55844 6.31146 1.70781 9.14192 0.746066 12.3144C-0.215677 15.4868 -0.248258 18.8684 0.652181 22.0588C1.55262 25.2493 3.34837 28.1148 5.82683 30.3164C8.30529 32.5179 11.3627 33.9631 14.637 34.481V22.359H10.237V17.345H14.637V13.523C14.637 9.17502 17.227 6.77402 21.189 6.77402C22.4899 6.79218 23.7877 6.90548 25.072 7.11302V11.382H22.885C22.5123 11.3325 22.1332 11.3675 21.7758 11.4844C21.4184 11.6012 21.0919 11.797 20.8205 12.0571C20.549 12.3173 20.3395 12.6351 20.2075 12.9872C20.0755 13.3393 20.0244 13.7165 20.058 14.091V17.345H24.869L24.101 22.359H20.058V34.481C24.1381 33.8346 27.8537 31.7537 30.5366 28.6125C33.2195 25.4714 34.6937 21.476 34.694 17.345Z" fill="#1B1B1B"/>
</svg>
