<svg xmlns="http://www.w3.org/2000/svg" width="48" height="48" viewBox="0 0 48 48">
  <g id="Group_356" data-name="Group 356" transform="translate(-1464 -858)">
    <path id="Path_245" data-name="Path 245" d="M0,0H48V48H0Z" transform="translate(1464 858)" fill="#4b4b4d"/>
    <path id="instagram" d="M10.617,3.091A9.468,9.468,0,0,0,7.462,3.7,6.639,6.639,0,0,0,3.667,7.51a9.513,9.513,0,0,0-.6,3.156c-.061,1.384-.075,1.829-.068,5.359s.023,3.972.09,5.359A9.5,9.5,0,0,0,3.7,24.538a6.636,6.636,0,0,0,3.809,3.795,9.55,9.55,0,0,0,3.156.6c1.384.061,1.829.075,5.359.068s3.972-.023,5.359-.088a9.516,9.516,0,0,0,3.153-.611,6.636,6.636,0,0,0,3.795-3.809,9.511,9.511,0,0,0,.6-3.155c.061-1.387.075-1.832.068-5.36S28.975,12,28.91,10.617A9.488,9.488,0,0,0,28.3,7.462a6.382,6.382,0,0,0-1.5-2.3A6.356,6.356,0,0,0,24.49,3.667a9.55,9.55,0,0,0-3.156-.6C19.951,3.01,19.506,2.994,15.975,3s-3.972.022-5.359.09m.152,23.5a7.215,7.215,0,0,1-2.415-.442,4.047,4.047,0,0,1-1.5-.969,4,4,0,0,1-.975-1.494,7.16,7.16,0,0,1-.452-2.412c-.065-1.372-.078-1.782-.087-5.253s.007-3.881.066-5.252a7.2,7.2,0,0,1,.442-2.414A4.311,4.311,0,0,1,8.314,5.885a7.16,7.16,0,0,1,2.412-.452c1.372-.065,1.782-.078,5.253-.087s3.881.006,5.253.066a7.156,7.156,0,0,1,2.412.442,4.3,4.3,0,0,1,2.473,2.463,7.189,7.189,0,0,1,.452,2.412c.065,1.372.079,1.782.087,5.252s-.006,3.883-.066,5.252a7.215,7.215,0,0,1-.442,2.415,4.311,4.311,0,0,1-2.463,2.471,7.206,7.206,0,0,1-2.412.452c-1.372.065-1.782.078-5.253.087s-3.881-.007-5.252-.066m10.6-17.54a1.56,1.56,0,1,0,1.557-1.563,1.56,1.56,0,0,0-1.557,1.563M9.325,16.013a6.675,6.675,0,1,0,6.662-6.688,6.675,6.675,0,0,0-6.662,6.688m2.341,0a4.333,4.333,0,1,1,4.342,4.325,4.333,4.333,0,0,1-4.342-4.325" transform="translate(1472 866)" fill="#fff"/>
  </g>
</svg>
