<svg width="34" height="34" viewBox="0 0 34 34" fill="none" xmlns="http://www.w3.org/2000/svg">
<g clip-path="url(#clip0_105_56)">
<path d="M17.0001 3.06298C21.5391 3.06298 22.0771 3.07998 23.8691 3.16298C24.9471 3.17568 26.015 3.37356 27.0261 3.74798C27.7591 4.03081 28.4249 4.46396 28.9805 5.01956C29.5361 5.57516 29.9692 6.24091 30.2521 6.97398C30.6265 7.98502 30.8244 9.0529 30.8371 10.131C30.9191 11.924 30.937 12.461 30.937 17C30.937 21.539 30.9201 22.077 30.8371 23.869C30.8243 24.9471 30.6265 26.0149 30.2521 27.026C29.9692 27.759 29.5361 28.4248 28.9805 28.9804C28.4249 29.536 27.7591 29.9691 27.0261 30.252C26.015 30.6264 24.9471 30.8243 23.8691 30.837C22.0771 30.919 21.5391 30.937 17.0001 30.937C12.4611 30.937 11.9211 30.921 10.1311 30.838C9.05297 30.8253 7.9851 30.6274 6.97405 30.253C6.24099 29.9701 5.57524 29.537 5.01964 28.9814C4.46404 28.4258 4.03089 27.76 3.74805 27.027C3.37362 26.0159 3.17574 24.9481 3.16305 23.87C3.08105 22.077 3.06305 21.54 3.06305 17.001C3.06305 12.462 3.08005 11.924 3.16305 10.132C3.17574 9.0539 3.37362 7.98602 3.74805 6.97498C4.03089 6.24191 4.46404 5.57616 5.01964 5.02056C5.57524 4.46496 6.24099 4.03181 6.97405 3.74898C7.9851 3.37454 9.05297 3.17666 10.1311 3.16398C11.9241 3.08198 12.4611 3.06298 17.0001 3.06298ZM17.0001 0.000976562C12.3831 0.000976562 11.8001 0.0209765 9.99105 0.100976C8.58062 0.129125 7.18517 0.396245 5.86405 0.890976C4.73482 1.32798 3.70933 1.99607 2.8533 2.85244C1.99728 3.70881 1.3296 4.73456 0.893052 5.86398C0.398321 7.1851 0.131201 8.58054 0.103052 9.99098C0.0200521 11.804 0.00305176 12.383 0.00305176 17C0.00305176 21.617 0.0230521 22.2 0.103052 24.009C0.131201 25.4194 0.398321 26.8149 0.893052 28.136C1.32983 29.2653 1.99771 30.2909 2.85391 31.1471C3.71011 32.0033 4.73573 32.6712 5.86505 33.108C7.18617 33.6027 8.58162 33.8698 9.99205 33.898C11.8051 33.981 12.3841 33.998 17.0011 33.998C21.6181 33.998 22.2011 33.978 24.0101 33.898C25.4205 33.8698 26.8159 33.6027 28.1371 33.108C29.2664 32.6712 30.292 32.0033 31.1482 31.1471C32.0044 30.2909 32.6723 29.2653 33.1091 28.136C33.6038 26.8149 33.8709 25.4194 33.8991 24.009C33.9821 22.196 33.9991 21.617 33.9991 17C33.9991 12.383 33.9791 11.8 33.8991 9.99098C33.8709 8.58054 33.6038 7.1851 33.1091 5.86398C32.6723 4.73465 32.0044 3.70903 31.1482 2.85283C30.292 1.99664 29.2664 1.32875 28.1371 0.891977C26.8159 0.397246 25.4205 0.130126 24.0101 0.101977C22.1971 0.0189769 21.6181 0.00197649 17.0011 0.00197649L17.0001 0.000976562Z" fill="#1B1B1B"/>
<path d="M17 8.09204C15.2382 8.09204 13.5159 8.61449 12.051 9.59332C10.5861 10.5721 9.44435 11.9634 8.77012 13.5911C8.0959 15.2188 7.91949 17.0099 8.26321 18.7379C8.60693 20.4659 9.45533 22.0531 10.7011 23.2989C11.9469 24.5447 13.5342 25.3932 15.2622 25.7369C16.9902 26.0806 18.7813 25.9042 20.409 25.23C22.0367 24.5557 23.428 23.414 24.4068 21.9491C25.3856 20.4841 25.908 18.7619 25.908 17C25.908 14.6375 24.9695 12.3717 23.2989 10.7011C21.6284 9.03056 19.3626 8.09204 17 8.09204ZM17 22.782C15.8565 22.782 14.7386 22.4429 13.7877 21.8076C12.8369 21.1723 12.0958 20.2692 11.6582 19.2127C11.2205 18.1562 11.106 16.9936 11.3291 15.872C11.5522 14.7504 12.1029 13.7202 12.9116 12.9116C13.7202 12.1029 14.7504 11.5522 15.872 11.3291C16.9936 11.106 18.1562 11.2205 19.2127 11.6582C20.2692 12.0958 21.1723 12.8369 21.8076 13.7877C22.4429 14.7386 22.782 15.8565 22.782 17C22.782 18.5335 22.1729 20.0042 21.0885 21.0885C20.0042 22.1729 18.5335 22.782 17 22.782Z" fill="#1B1B1B"/>
<path d="M26.101 9.89508C27.2033 9.89508 28.097 9.00144 28.097 7.89908C28.097 6.79672 27.2033 5.90308 26.101 5.90308C24.9986 5.90308 24.105 6.79672 24.105 7.89908C24.105 9.00144 24.9986 9.89508 26.101 9.89508Z" fill="#1B1B1B"/>
</g>
<defs>
<clipPath id="clip0_105_56">
<rect width="34" height="34" fill="white"/>
</clipPath>
</defs>
</svg>
