<?xml version="1.0" encoding="utf-8"?>
<!-- Generator: Adobe Illustrator 18.0.0, SVG Export Plug-In . SVG Version: 6.00 Build 0)  -->
<!DOCTYPE svg PUBLIC "-//W3C//DTD SVG 1.1//EN" "http://www.w3.org/Graphics/SVG/1.1/DTD/svg11.dtd">
<svg version="1.1" id="Layer_3" xmlns="http://www.w3.org/2000/svg" xmlns:xlink="http://www.w3.org/1999/xlink" x="0px" y="0px"
	 viewBox="0 0 110 110" enable-background="new 0 0 110 110" xml:space="preserve">
<g>
	<g>
		<path fill="#FFFFFF" d="M54.5,70.7c-5.2,0-9.4-4.2-9.4-9.4c0-5.2,4.2-9.4,9.4-9.4s9.4,4.2,9.4,9.4C63.9,66.5,59.7,70.7,54.5,70.7z
			 M54.5,55.2c-3.4,0-6.1,2.7-6.1,6.1s2.7,6.1,6.1,6.1c3.4,0,6.1-2.7,6.1-6.1S57.9,55.2,54.5,55.2z"/>
	</g>
	<g>
		<g>
			<path fill="#FFFFFF" d="M67.5,87.7H41.5c-0.9,0-1.6-0.7-1.6-1.6v-4c0-6.8,5.6-12.4,12.4-12.4h4.5c6.8,0,12.4,5.6,12.4,12.4v4
				C69.2,86.9,68.4,87.7,67.5,87.7z M43.1,84.4h22.8V82c0-5-4.1-9.1-9.1-9.1h-4.5c-5,0-9.1,4.1-9.1,9.1V84.4z"/>
		</g>
	</g>
	<g>
		<path fill="#FFFFFF" d="M78.2,71.9"/>
	</g>
	<g>
		<path fill="#FFFFFF" d="M77.4,75.6H63.9c-0.9,0-1.6-0.7-1.6-1.6s0.7-1.6,1.6-1.6h11.8V47.2H34.4v25.1h10.7c0.9,0,1.6,0.7,1.6,1.6
			s-0.7,1.6-1.6,1.6H32.8c-0.9,0-1.6-0.7-1.6-1.6V45.6c0-0.9,0.7-1.6,1.6-1.6h44.6c0.9,0,1.6,0.7,1.6,1.6V74
			C79.1,74.9,78.3,75.6,77.4,75.6z"/>
	</g>
	<g>
		<path fill="#FFFFFF" d="M87.3,47.2c-0.1,0-0.3,0-0.4,0l-31.8-7.9l-32,7.9c-0.9,0.2-1.8-0.3-2-1.2c-0.2-0.9,0.3-1.8,1.2-2l32.4-8
			c0.3-0.1,0.5-0.1,0.8,0l32.2,8c0.9,0.2,1.4,1.1,1.2,2C88.7,46.7,88,47.2,87.3,47.2z"/>
	</g>
	<g>
		<path fill="#FFFFFF" d="M87.3,75.6h-9.9c-0.9,0-1.6-0.7-1.6-1.6s0.7-1.6,1.6-1.6h8.2V47.2h-8.2c-0.9,0-1.6-0.7-1.6-1.6
			s0.7-1.6,1.6-1.6h9.9c0.9,0,1.6,0.7,1.6,1.6V74C88.9,74.9,88.2,75.6,87.3,75.6z"/>
	</g>
	<g>
		<path fill="#FFFFFF" d="M31.9,75.6h-9.2c-0.9,0-1.6-0.7-1.6-1.6V45.6c0-0.9,0.7-1.6,1.6-1.6h9.2c0.9,0,1.6,0.7,1.6,1.6
			s-0.7,1.6-1.6,1.6h-7.5v25.1h7.5c0.9,0,1.6,0.7,1.6,1.6S32.8,75.6,31.9,75.6z"/>
	</g>
	<g>
		<g>
			<path fill="#FFFFFF" d="M33,47.2c-0.9,0-1.6-0.7-1.6-1.6V26.2c0-0.9,0.7-1.6,1.6-1.6s1.6,0.7,1.6,1.6v19.4
				C34.6,46.5,33.9,47.2,33,47.2z"/>
		</g>
		<g>
			<path fill="#FFFFFF" d="M48.9,34.3H33c-0.9,0-1.6-0.7-1.6-1.6V24c0-0.9,0.7-1.6,1.6-1.6h15.9c0.9,0,1.6,0.7,1.6,1.6v8.7
				C50.5,33.6,49.8,34.3,48.9,34.3z M34.6,31h12.6v-5.4H34.6V31z"/>
		</g>
	</g>
</g>
</svg>
