<?xml version="1.0" encoding="utf-8"?>
<!-- Generator: Adobe Illustrator 18.0.0, SVG Export Plug-In . SVG Version: 6.00 Build 0)  -->
<!DOCTYPE svg PUBLIC "-//W3C//DTD SVG 1.1//EN" "http://www.w3.org/Graphics/SVG/1.1/DTD/svg11.dtd">
<svg version="1.1" id="Layer_3" xmlns="http://www.w3.org/2000/svg" xmlns:xlink="http://www.w3.org/1999/xlink" x="0px" y="0px"
	 viewBox="0 0 110 110" enable-background="new 0 0 110 110" xml:space="preserve">
<g>
	<g>
		<path fill="#FFFFFF" d="M96,79.5H18c-1.2,0-2.2-1-2.2-2.2V37.2c0-1.2,1-2.2,2.2-2.2h78c1.2,0,2.2,1,2.2,2.2v40.1
			C98.2,78.5,97.2,79.5,96,79.5z M20.2,75.1h73.5V39.4H20.2V75.1z"/>
	</g>
	<g>
		<g>
			<path fill="#FFFFFF" d="M56.8,67.7c-5.8,0-10.4-4.7-10.4-10.4S51,46.9,56.8,46.9s10.4,4.7,10.4,10.4S62.6,67.7,56.8,67.7z
				 M56.8,51.3c-3.3,0-6,2.7-6,6s2.7,6,6,6s6-2.7,6-6S60.1,51.3,56.8,51.3z"/>
		</g>
		<g>
			<path fill="#FFFFFF" d="M39.4,55.9c0,1.3-1,2.3-2.3,2.3s-2.3-1-2.3-2.3s1-2.3,2.3-2.3C38.4,53.6,39.4,54.7,39.4,55.9z"/>
			<path fill="#FFFFFF" d="M37.1,58.7c-1.6,0-2.8-1.2-2.8-2.8s1.2-2.8,2.8-2.8c1.5,0,2.8,1.3,2.8,2.8C39.9,57.5,38.7,58.7,37.1,58.7
				z M37.1,54.1c-1,0-1.8,0.8-1.8,1.8s0.8,1.8,1.8,1.8s1.8-0.8,1.8-1.8C38.9,54.9,38.1,54.1,37.1,54.1z"/>
		</g>
		<g>
			<path fill="#FFFFFF" d="M79.1,55.9c0,1.3-1,2.3-2.3,2.3s-2.3-1-2.3-2.3s1-2.3,2.3-2.3C78.1,53.6,79.1,54.7,79.1,55.9z"/>
			<path fill="#FFFFFF" d="M76.8,58.7c-1.6,0-2.8-1.2-2.8-2.8s1.2-2.8,2.8-2.8c1.5,0,2.8,1.3,2.8,2.8C79.6,57.5,78.4,58.7,76.8,58.7
				z M76.8,54.1c-1,0-1.8,0.8-1.8,1.8s0.8,1.8,1.8,1.8s1.8-0.8,1.8-1.8C78.6,54.9,77.8,54.1,76.8,54.1z"/>
		</g>
	</g>
	<g>
		<path fill="#FFFFFF" d="M96,50.4c-7.6,0-12.9-5.2-12.9-12.6c0-1.2,1-2.2,2.2-2.2s2.2,1,2.2,2.2c0,5,3.3,8.2,8.5,8.2
			c1.2,0,2.2,1,2.2,2.2S97.2,50.4,96,50.4z"/>
	</g>
	<g>
		<path fill="#FFFFFF" d="M85.3,78.6c-1.2,0-2.2-1-2.2-2.2c0-7.3,5.2-12.2,12.9-12.2c1.2,0,2.2,1,2.2,2.2s-1,2.2-2.2,2.2
			c-5.3,0-8.5,2.9-8.5,7.8C87.5,77.6,86.5,78.6,85.3,78.6z"/>
	</g>
	<g>
		<path fill="#FFFFFF" d="M18,50.4c-1.2,0-2.2-1-2.2-2.2s1-2.2,2.2-2.2c5.4,0,9.2-3.4,9.2-8.2c0-1.2,1-2.2,2.2-2.2s2.2,1,2.2,2.2
			C31.6,45.1,25.9,50.4,18,50.4z"/>
	</g>
	<g>
		<path fill="#FFFFFF" d="M29.4,78.6c-1.2,0-2.2-1-2.2-2.2c0-5.4-4.6-7.8-9.2-7.8c-1.2,0-2.2-1-2.2-2.2s1-2.2,2.2-2.2
			c8,0,13.6,5,13.6,12.2C31.6,77.6,30.6,78.6,29.4,78.6z"/>
	</g>
</g>
</svg>
