<?xml version="1.0" encoding="utf-8"?>
<!-- Generator: Adobe Illustrator 18.0.0, SVG Export Plug-In . SVG Version: 6.00 Build 0)  -->
<!DOCTYPE svg PUBLIC "-//W3C//DTD SVG 1.1//EN" "http://www.w3.org/Graphics/SVG/1.1/DTD/svg11.dtd">
<svg version="1.1" id="Layer_2" xmlns="http://www.w3.org/2000/svg" xmlns:xlink="http://www.w3.org/1999/xlink" x="0px" y="0px"
	 viewBox="0 0 110 110" enable-background="new 0 0 110 110" xml:space="preserve">
<g>
	<g>
		<path fill="#FFFFFF" d="M55,89.4C36,89.4,20.6,74,20.6,55C20.6,36,36,20.6,55,20.6C74,20.6,89.4,36,89.4,55
			C89.4,74,74,89.4,55,89.4z M55,25.1c-16.5,0-29.9,13.4-29.9,29.9c0,16.5,13.4,29.9,29.9,29.9c16.5,0,29.9-13.4,29.9-29.9
			C84.9,38.5,71.5,25.1,55,25.1z"/>
	</g>
	<g>
		<rect x="22.8" y="52.8" fill="#FFFFFF" width="64.4" height="4.5"/>
	</g>
	<g>
		<path fill="#FFFFFF" d="M52,88.4c-0.5-0.5-11.6-12.5-11.6-32.9c0-20.5,11.8-33.2,12.3-33.7l3.3,3.1c-0.1,0.1-11.1,12-11.1,30.6
			c0,18.6,10.3,29.7,10.4,29.8L52,88.4z"/>
	</g>
	<g>
		<path fill="#FFFFFF" d="M59.3,88l-3.2-3.2C56.2,84.7,67,73.5,67,54.9c0-18.7-10.6-30-10.7-30.1l3.2-3.1c0.5,0.5,12,12.7,12,33.2
			C71.5,75.4,59.8,87.5,59.3,88z"/>
	</g>
</g>
</svg>
