<?xml version="1.0" encoding="utf-8"?>
<!-- Generator: Adobe Illustrator 18.0.0, SVG Export Plug-In . SVG Version: 6.00 Build 0)  -->
<!DOCTYPE svg PUBLIC "-//W3C//DTD SVG 1.1//EN" "http://www.w3.org/Graphics/SVG/1.1/DTD/svg11.dtd">
<svg version="1.1" id="Layer_2" xmlns="http://www.w3.org/2000/svg" xmlns:xlink="http://www.w3.org/1999/xlink" x="0px" y="0px"
	 viewBox="0 0 612 792" enable-background="new 0 0 612 792" xml:space="preserve">
<g>
	<path fill="#FFFFFF" d="M323.1,495.5"/>
</g>
<path fill="#FFFFFF" d="M482.5,250.8H205.1c-21.2,0-38.5,17.3-38.5,38.5v38.2l-69,34.7c-4,2-5.6,6.8-3.6,10.8
	c1.4,2.8,4.2,4.4,7.2,4.4c1.2,0,2.4-0.3,3.6-0.9l61.8-31.1v74.4l-12.7,5.7c-4,1.8-5.9,6.6-4,10.6c1.8,4.1,6.6,5.9,10.6,4l85.3-38.5
	c19.7-8.9,34-12.2,44.6-1.6c5.9,5.9,9.2,14.1,9,22.4c-0.2,7.7-3.3,14.6-8.7,19.6l-70.9,64.6C193.3,532,165.5,534,129.1,534h-27.9
	c-4.4,0-8,3.6-8,8s3.6,8,8,8h27.9c37.5,0,71-2.4,101.6-31.5l24.5-22.3h227.4c21.2,0,38.5-17.3,38.5-38.5V289.3
	C521,268.1,503.8,250.8,482.5,250.8z M504.9,457.8c0,12.3-10,22.4-22.4,22.4H272.8l28.6-26.1c8.7-7.9,13.7-19,14-31.1
	c0.3-12.7-4.7-25.2-13.7-34.2c-20.6-20.6-49-7.8-62.6-1.7l-56.5,25.5v-54h322.2L504.9,457.8L504.9,457.8z M504.9,342.6H182.7v-29.8
	h322.2L504.9,342.6L504.9,342.6z M504.9,296.7H182.7v-7.4c0-12.3,10-22.4,22.4-22.4h277.5c12.3,0,22.4,10,22.4,22.4L504.9,296.7
	L504.9,296.7z M402.1,450.4h65c4.4,0,8-3.6,8-8v-45.9c0-4.4-3.6-8-8-8h-65c-4.4,0-8,3.6-8,8v45.9C394,446.8,397.6,450.4,402.1,450.4
	z M410.1,404.5H459v29.8h-48.9V404.5z"/>
</svg>
