<?xml version="1.0" encoding="utf-8"?>
<!-- Generator: Adobe Illustrator 18.0.0, SVG Export Plug-In . SVG Version: 6.00 Build 0)  -->
<!DOCTYPE svg PUBLIC "-//W3C//DTD SVG 1.1//EN" "http://www.w3.org/Graphics/SVG/1.1/DTD/svg11.dtd">
<svg version="1.1" id="Layer_2" xmlns="http://www.w3.org/2000/svg" xmlns:xlink="http://www.w3.org/1999/xlink" x="0px" y="0px"
	 viewBox="0 0 110 110" enable-background="new 0 0 110 110" xml:space="preserve">
<g>
	<g>
		<path fill="#FFFFFF" d="M69.2,56.6c-2-2.3-6.1-4.3-12.3-6.1l-2.7-0.8c-2-0.5-3.7-1-5-1.6c-1.4-0.6-2.4-1.3-3.2-2.1
			c-0.8-0.8-1.3-1.7-1.7-2.7c-0.4-1-0.5-2.1-0.5-3.3c0-6.1,3.5-9.5,10.5-10l2.7,0.1c5,0.7,8.2,3.8,9.4,9.2c0,0,0.9,1.3,2.6,1.1
			c1.5-0.3,1.9-1.7,1.9-1.7c-1.8-7.7-6.5-11.9-13.9-12.5v-9.2h-2.7v9.2c-3.2,0.2-5.9,1-8,2.1c-2.2,1.2-3.9,2.8-5,4.8
			c-1.2,2-1.7,4.3-1.7,7.1c0,2.1,0.4,4,1.1,5.7c0.7,1.6,1.7,3,3.1,4.1c1.3,1.1,2.8,1.9,4.4,2.5c1.6,0.6,3.7,1.2,6.3,1.9l2.7,0.7
			c3.6,1.1,6,2.1,7.3,3c1.3,0.9,2.2,2,2.8,3.3c0.6,1.3,0.9,2.7,0.9,4.3c0,6.4-3.7,10.2-11,11.2l-2.7,0c-6.2-0.6-10-4.6-11.6-12
			c0,0-0.4-1.2-2.2-0.9c-1.8,0.3-2.2,1.5-2.2,1.5c1.6,9.7,6.9,14.7,16,15v8.5h2.7v-8.5c4.8-0.5,8.6-2.1,11.3-4.7
			c2.7-2.7,4-6.1,4-10.5C72.2,61.7,71.2,58.8,69.2,56.6z"/>
	</g>
	<g>
		<path fill="#FFFFFF" d="M55.4,30c-1.2,0-2.1-0.9-2.1-2.1v-12c0-1.2,0.9-2.1,2.1-2.1c1.2,0,2.1,0.9,2.1,2.1v12
			C57.5,29,56.5,30,55.4,30z"/>
	</g>
	<g>
		<path fill="#FFFFFF" d="M55.4,92.9c-1.2,0-2.1-0.9-2.1-2.1v-12c0-1.2,0.9-2.1,2.1-2.1c1.2,0,2.1,0.9,2.1,2.1v12
			C57.5,92,56.5,92.9,55.4,92.9z"/>
	</g>
</g>
</svg>
