<?xml version="1.0" encoding="utf-8"?>
<!-- Generator: Adobe Illustrator 18.0.0, SVG Export Plug-In . SVG Version: 6.00 Build 0)  -->
<!DOCTYPE svg PUBLIC "-//W3C//DTD SVG 1.1//EN" "http://www.w3.org/Graphics/SVG/1.1/DTD/svg11.dtd">
<svg version="1.1" id="Layer_1_copy" xmlns="http://www.w3.org/2000/svg" xmlns:xlink="http://www.w3.org/1999/xlink" x="0px"
	 y="0px" viewBox="0 0 110 110" enable-background="new 0 0 110 110" xml:space="preserve">
<g>
	<g>
		<path fill="#FFFFFF" d="M35.9,91.5c-1.1,0-1.9-0.9-1.9-1.9V24c0-1.1,0.9-1.9,1.9-1.9s1.9,0.9,1.9,1.9v65.6
			C37.8,90.7,37,91.5,35.9,91.5z"/>
	</g>
	<g>
		<path fill="#FFFFFF" d="M41.9,58.4c-1.7,0-3.3-0.2-4.6-0.8c-1-0.4-1.5-1.5-1.1-2.5s1.5-1.5,2.5-1.1c3.3,1.3,10.2,0,15.9-3.1
			c7.9-4.2,16.1-2.5,20.3-1.1V27.6c-2.2-1.5-10-5.6-20.7,1.3c-7.5,4.8-16.9,3.2-17.3,3.2c-1-0.2-1.7-1.2-1.5-2.2s1.2-1.7,2.2-1.5
			c0.1,0,8.3,1.4,14.5-2.6c7.8-5,14.4-4.9,18.5-3.9c4.6,1.1,7.3,3.4,7.4,3.5c0.4,0.4,0.7,0.9,0.7,1.4v26.1c0,0.7-0.3,1.3-0.9,1.6
			s-1.3,0.4-1.8,0.1c-0.1,0-10.4-4.9-19.6,0C52,56.7,46.5,58.4,41.9,58.4z"/>
	</g>
</g>
<g>
	<g>
		<path fill="#FFFFFF" d="M35.9,91.5c-1.1,0-1.9-0.9-1.9-1.9V24c0-1.1,0.9-1.9,1.9-1.9s1.9,0.9,1.9,1.9v65.6
			C37.8,90.7,37,91.5,35.9,91.5z"/>
	</g>
	<g>
		<path fill="#FFFFFF" d="M41.9,58.4c-1.7,0-3.3-0.2-4.6-0.8c-1-0.4-1.5-1.5-1.1-2.5s1.5-1.5,2.5-1.1c3.3,1.3,10.2,0,15.9-3.1
			c7.9-4.2,16.1-2.5,20.3-1.1V27.6c-2.2-1.5-10-5.6-20.7,1.3c-7.5,4.8-16.9,3.2-17.3,3.2c-1-0.2-1.7-1.2-1.5-2.2s1.2-1.7,2.2-1.5
			c0.1,0,8.3,1.4,14.5-2.6c7.8-5,14.4-4.9,18.5-3.9c4.6,1.1,7.3,3.4,7.4,3.5c0.4,0.4,0.7,0.9,0.7,1.4v26.1c0,0.7-0.3,1.3-0.9,1.6
			s-1.3,0.4-1.8,0.1c-0.1,0-10.4-4.9-19.6,0C52,56.7,46.5,58.4,41.9,58.4z"/>
	</g>
</g>
</svg>
