<?xml version="1.0" encoding="utf-8"?>
<!-- Generator: Adobe Illustrator 18.0.0, SVG Export Plug-In . SVG Version: 6.00 Build 0)  -->
<!DOCTYPE svg PUBLIC "-//W3C//DTD SVG 1.1//EN" "http://www.w3.org/Graphics/SVG/1.1/DTD/svg11.dtd">
<svg version="1.1" id="Layer_3" xmlns="http://www.w3.org/2000/svg" xmlns:xlink="http://www.w3.org/1999/xlink" x="0px" y="0px"
	 viewBox="0 0 110 110" enable-background="new 0 0 110 110" xml:space="preserve">
<g>
	<g>
		<path fill="#FFFFFF" d="M66.3,38.8c-1.2,0-2.2-1-2.2-2.2v-6.7H46v6.7c0,1.2-1,2.2-2.2,2.2s-2.2-1-2.2-2.2v-8.9
			c0-1.2,1-2.2,2.2-2.2h22.6c1.2,0,2.2,1,2.2,2.2v8.9C68.5,37.7,67.5,38.8,66.3,38.8z"/>
	</g>
	<g>
		<g>
			<path fill="#FFFFFF" d="M83.8,84.7H26.2c-4.3,0-7.7-3.5-7.7-7.7V42.7c0-4.3,3.5-7.7,7.7-7.7h57.5c4.3,0,7.7,3.5,7.7,7.7v34.2
				C91.5,81.2,88,84.7,83.8,84.7z M26.2,39.5c-1.8,0-3.2,1.4-3.2,3.2v34.2c0,1.8,1.4,3.2,3.2,3.2h57.5c1.8,0,3.2-1.4,3.2-3.2V42.7
				c0-1.8-1.4-3.2-3.2-3.2H26.2z"/>
		</g>
	</g>
</g>
</svg>
